# File created by Blade
# Date/Time:  Tue Apr 07 20:35:32 2015
# Frame Rate: 120.000 fps
#------------------------------------------------------
:FULLY-SPECIFIED
:DEGREES
849
root 2.027674 32.682128 -3.092340 21.265418 -68.227360 -28.947202
Spine 6.443337 25.639743 12.757650
Head 8.284874 26.797115 -4.195927
LeftShoulder -22.044007 36.292791 19.714339
LeftArm 57.270436 -67.238463 -60.820856
LeftForeArm 5.874765 -0.000000 19.036981
LeftHand 11.245801 -0.000000 7.692227
LeftHandThumb1 -26.253704 0.000000 33.147579
RightShoulder 8.308227 10.441869 -23.830738
RightArm 31.893289 -26.583472 86.076457
RightForeArm -8.829237 -0.000000 11.392787
RightHand -0.318040 -0.000000 11.463524
RightHandThumb1 -24.326973 -0.000000 -32.862282
LeftUpLeg -2.035979 2.126711 2.223426
LeftLeg 15.121596 -0.000000 -0.000000
LeftFoot -16.019779 21.784418 -8.477199
LeftToeBase -11.866131 -0.000000 0.000000
RightUpLeg -94.142386 -32.006511 14.719326
RightLeg 78.214873 -0.000000 -0.000000
RightFoot 39.689970 -23.149771 3.043211
RightToeBase 32.885548 -0.000000 -0.000000
850
root 1.994660 32.664452 -3.058077 20.549412 -68.421854 -28.699921
Spine 7.026426 25.274010 12.941972
Head 8.233386 27.039025 -4.547833
LeftShoulder -22.151925 36.413164 19.590032
LeftArm 58.006666 -67.509475 -61.714536
LeftForeArm 6.131535 -0.000000 19.291927
LeftHand 11.463561 -0.000000 7.952602
LeftHandThumb1 -26.253704 0.000000 33.147579
RightShoulder 8.362990 10.537076 -23.872164
RightArm 32.103092 -26.564763 85.889939
RightForeArm -8.780056 -0.000000 11.275536
RightHand -0.297265 -0.000000 11.449006
RightHandThumb1 -24.326973 -0.000000 -32.862282
LeftUpLeg -1.516883 2.486640 2.070196
LeftLeg 15.231919 -0.000000 -0.000000
LeftFoot -16.109443 21.688496 -8.456057
LeftToeBase -11.566905 -0.000000 0.000000
RightUpLeg -94.950563 -32.036036 15.425474
RightLeg 78.047797 -0.000000 -0.000000
RightFoot 39.700836 -23.158431 3.089326
RightToeBase 32.786259 -0.000000 -0.000000
851
root 1.958506 32.648068 -3.020576 19.730519 -68.572827 -28.387859
Spine 7.639988 24.876851 13.136649
Head 8.207397 27.270146 -4.895599
LeftShoulder -22.216984 36.512037 19.484328
LeftArm 58.511600 -67.734213 -62.393019
LeftForeArm 6.299187 -0.000000 19.538147
LeftHand 11.452490 -0.000000 8.144151
LeftHandThumb1 -26.253704 0.000000 33.147579
RightShoulder 8.410910 10.641657 -23.909828
RightArm 32.320832 -26.566644 85.694654
RightForeArm -8.745880 -0.000000 11.139014
RightHand -0.167754 -0.000000 11.301082
RightHandThumb1 -24.326973 -0.000000 -32.862282
LeftUpLeg -0.936817 2.784117 1.898007
LeftLeg 15.295313 -0.000000 -0.000000
LeftFoot -16.107787 21.703973 -8.302853
LeftToeBase -11.386934 -0.000000 0.000000
RightUpLeg -95.770145 -32.094484 16.091322
RightLeg 77.906430 -0.000000 -0.000000
RightFoot 39.703621 -23.155373 3.040751
RightToeBase 32.751654 -0.000000 -0.000000
852
root 1.921126 32.632506 -2.983945 18.916620 -68.693361 -28.121169
Spine 8.310552 24.475538 13.385953
Head 8.138133 27.527950 -5.288271
LeftShoulder -22.291239 36.665549 19.368131
LeftArm 59.329813 -67.968538 -63.462646
LeftForeArm 6.498372 -0.000000 19.805446
LeftHand 11.542735 0.000000 8.666870
LeftHandThumb1 -26.253704 0.000000 33.147579
RightShoulder 8.459919 10.803928 -23.968508
RightArm 32.497268 -26.662415 85.514145
RightForeArm -8.405857 -0.000000 11.045182
RightHand -0.244319 0.000000 10.801646
RightHandThumb1 -24.326973 -0.000000 -32.862282
LeftUpLeg -0.328084 3.078599 1.752433
LeftLeg 15.357310 -0.000000 -0.000000
LeftFoot -16.031695 21.771708 -7.998229
LeftToeBase -11.342951 -0.000000 0.000000
RightUpLeg -96.570492 -32.142857 16.722350
RightLeg 77.761717 -0.000000 -0.000000
RightFoot 39.682386 -23.174039 3.068678
RightToeBase 32.723003 -0.000000 -0.000000
853
root 1.882841 32.619132 -2.954257 18.225307 -68.802971 -27.961803
Spine 8.940738 24.146569 13.643351
Head 8.057989 27.909784 -5.608474
LeftShoulder -22.307453 36.734763 19.351751
LeftArm 59.961985 -68.086774 -64.354371
LeftForeArm 6.612453 -0.000000 20.054996
LeftHand 11.466047 -0.000000 8.458959
LeftHandThumb1 -26.253704 0.000000 33.147579
RightShoulder 8.502423 10.899380 -23.982899
RightArm 32.699572 -26.570376 85.323654
RightForeArm -8.285779 -0.000000 10.908133
RightHand -0.207272 -0.000000 10.835147
RightHandThumb1 -24.326973 -0.000000 -32.862282
LeftUpLeg 0.220676 3.352367 1.656617
LeftLeg 15.480468 -0.000000 -0.000000
LeftFoot -15.984288 21.858713 -7.701832
LeftToeBase -11.212662 -0.000000 0.000000
RightUpLeg -97.403103 -32.130985 17.346906
RightLeg 77.630696 -0.000000 -0.000000
RightFoot 39.648015 -23.235885 3.241455
RightToeBase 32.724659 -0.000000 -0.000000
854
root 1.841237 32.609068 -2.926239 17.655398 -68.847032 -27.977738
Spine 9.621887 23.781486 14.021200
Head 8.011872 28.137545 -5.956743
LeftShoulder -22.361241 36.856332 19.239724
LeftArm 60.663799 -68.196795 -65.270224
LeftForeArm 6.664752 -0.000000 20.271578
LeftHand 11.653143 -0.000000 8.736851
LeftHandThumb1 -26.253704 0.000000 33.147579
RightShoulder 8.547113 11.035795 -24.032980
RightArm 32.806766 -26.403731 85.233616
RightForeArm -8.176826 -0.000000 10.844975
RightHand -0.162249 -0.000000 11.056364
RightHandThumb1 -24.326973 -0.000000 -32.862282
LeftUpLeg 0.775618 3.464731 1.637147
LeftLeg 15.676393 -0.000000 -0.000000
LeftFoot -15.955800 22.059546 -7.404659
LeftToeBase -11.189512 -0.000000 0.000000
RightUpLeg -98.179922 -32.125834 17.949093
RightLeg 77.490218 -0.000000 -0.000000
RightFoot 39.700013 -23.329345 3.450929
RightToeBase 32.623705 -0.000000 -0.000000
855
root 1.801967 32.600916 -2.901700 17.255117 -68.856643 -28.126210
Spine 10.245132 23.444477 14.432456
Head 7.992842 28.263315 -6.275295
LeftShoulder -22.412806 37.013723 19.142688
LeftArm 61.289928 -68.222960 -66.121880
LeftForeArm 6.885491 -0.000000 20.475700
LeftHand 11.568829 -0.000000 9.105562
LeftHandThumb1 -26.253704 0.000000 33.147579
RightShoulder 8.635907 11.145788 -24.044785
RightArm 32.880485 -26.099678 85.132929
RightForeArm -8.520011 -0.000000 10.778314
RightHand -0.136817 -0.000000 10.633098
RightHandThumb1 -24.326973 -0.000000 -32.862282
LeftUpLeg 1.228042 3.474084 1.668290
LeftLeg 15.975181 -0.000000 -0.000000
LeftFoot -15.969830 22.292414 -7.191410
LeftToeBase -11.135465 -0.000000 0.000000
RightUpLeg -98.995097 -32.088884 18.567353
RightLeg 77.330739 -0.000000 -0.000000
RightFoot 39.743531 -23.305066 3.586329
RightToeBase 32.635369 -0.000000 -0.000000
856
root 1.762957 32.596214 -2.884197 17.051862 -68.838429 -28.450626
Spine 10.827263 23.136192 14.895510
Head 8.008881 28.369899 -6.561461
LeftShoulder -22.422457 37.077052 19.076922
LeftArm 61.528628 -68.192173 -66.559632
LeftForeArm 6.999742 -0.000000 20.664908
LeftHand 11.544307 -0.000000 8.558545
LeftHandThumb1 -26.253704 0.000000 33.147579
RightShoulder 8.746035 11.246206 -24.061004
RightArm 32.967166 -25.816331 85.043868
RightForeArm -8.362400 -0.000000 10.689182
RightHand -0.080509 -0.000000 10.634227
RightHandThumb1 -24.326973 -0.000000 -32.862282
LeftUpLeg 1.596938 3.421738 1.781693
LeftLeg 16.373593 -0.000000 -0.000000
LeftFoot -16.038919 22.505577 -7.092530
LeftToeBase -11.171447 -0.000000 0.000000
RightUpLeg -99.808572 -32.008406 19.181062
RightLeg 77.162654 -0.000000 -0.000000
RightFoot 39.728528 -23.293646 3.796180
RightToeBase 32.479293 -0.000000 -0.000000
857
root 1.723828 32.595525 -2.864779 17.060109 -68.748920 -29.011374
Spine 11.418797 22.807730 15.507374
Head 8.002454 28.435103 -6.914920
LeftShoulder -22.474065 37.187223 18.947794
LeftArm 61.712630 -68.080837 -66.946909
LeftForeArm 7.154930 0.000000 20.882873
LeftHand 11.664446 -0.000000 9.038197
LeftHandThumb1 -26.253704 0.000000 33.147579
RightShoulder 8.835377 11.328630 -24.125659
RightArm 33.105166 -25.661389 84.879443
RightForeArm -7.750084 -0.000000 10.572263
RightHand 0.034232 -0.000000 10.968684
RightHandThumb1 -24.326973 -0.000000 -32.862282
LeftUpLeg 1.963877 3.307025 1.999430
LeftLeg 16.797419 -0.000000 -0.000000
LeftFoot -16.156931 22.653224 -7.050114
LeftToeBase -11.137795 -0.000000 0.000000
RightUpLeg -100.594466 -31.951283 19.823760
RightLeg 76.946493 -0.000000 -0.000000
RightFoot 39.779949 -23.289583 3.863258
RightToeBase 32.459675 -0.000000 -0.000000
858
root 1.684263 32.597080 -2.856101 17.195815 -68.691966 -29.687623
Spine 12.019960 22.562737 16.115261
Head 7.936496 28.436997 -7.250164
LeftShoulder -22.484591 37.248986 18.854959
LeftArm 61.657399 -67.984073 -67.086490
LeftForeArm 7.449234 -0.000000 21.092751
LeftHand 11.654084 0.000000 8.752385
LeftHandThumb1 -26.253704 0.000000 33.147579
RightShoulder 8.933437 11.477923 -24.172437
RightArm 33.152591 -25.373556 84.844161
RightForeArm -7.404719 -0.000000 10.438100
RightHand 0.001398 -0.000000 10.989484
RightHandThumb1 -24.326973 -0.000000 -32.862282
LeftUpLeg 2.308184 3.307770 2.284945
LeftLeg 17.233379 -0.000000 -0.000000
LeftFoot -16.253779 22.693279 -6.986234
LeftToeBase -11.169236 -0.000000 0.000000
RightUpLeg -101.326735 -31.794797 20.377213
RightLeg 76.729930 -0.000000 -0.000000
RightFoot 39.766997 -23.269547 3.911983
RightToeBase 32.379754 -0.000000 -0.000000
859
root 1.644864 32.599903 -2.850474 17.451244 -68.590082 -30.435378
Spine 12.555108 22.334736 16.741069
Head 7.861475 28.419290 -7.596136
LeftShoulder -22.488176 37.309543 18.737554
LeftArm 61.349265 -67.855128 -66.892670
LeftForeArm 7.696271 -0.000000 21.212541
LeftHand 11.717937 -0.000000 8.442370
LeftHandThumb1 -26.253704 0.000000 33.147579
RightShoulder 9.029939 11.619163 -24.241183
RightArm 33.227501 -25.054072 84.831727
RightForeArm -7.297752 -0.000000 10.213745
RightHand 0.018878 -0.000000 10.948402
RightHandThumb1 -24.326973 -0.000000 -32.862282
LeftUpLeg 2.595563 3.269729 2.607025
LeftLeg 17.664527 -0.000000 -0.000000
LeftFoot -16.313158 22.765613 -6.886636
LeftToeBase -11.234605 -0.000000 0.000000
RightUpLeg -102.122821 -31.620306 20.957568
RightLeg 76.500723 -0.000000 -0.000000
RightFoot 39.688206 -23.469845 3.940154
RightToeBase 32.387701 -0.000000 -0.000000
